<svg width="560" height="191" viewBox="0 0 560 191" fill="none" xmlns="http://www.w3.org/2000/svg">
<g clip-path="url(#clip0_1310_1755)">
<path d="M209.05 69.37C206.63 68.77 203.791 68.13 200.521 67.47C197.05 66.7826 193.519 66.4476 189.98 66.47C187.946 66.4944 185.916 66.6447 183.901 66.92C182.092 67.1219 180.3 67.4562 178.54 67.92V140.92H151.48V50.49C157.108 48.5705 162.837 46.9614 168.641 45.67C175.902 44.087 183.319 43.3256 190.75 43.4C192.2 43.4 193.961 43.5 196.021 43.68C198.081 43.86 200.13 44.1 202.19 44.4C204.25 44.7 206.31 45.07 208.37 45.49C210.169 45.8405 211.93 46.3594 213.63 47.04L209.05 69.37Z" fill="#544E50"/>
<path d="M215.75 93.8899C215.591 86.2893 216.919 78.7309 219.66 71.6399C221.994 65.7285 225.486 60.343 229.93 55.7999C234.089 51.6205 239.066 48.3454 244.55 46.1799C249.957 44.0184 255.727 42.9086 261.55 42.9099C275.11 42.9099 285.823 47.0566 293.69 55.3499C301.557 63.6432 305.493 75.8399 305.5 91.9399C305.5 93.5199 305.44 95.2399 305.32 97.1199C305.2 98.9999 305.07 100.66 304.95 102.12H243.55C243.791 104.77 244.616 107.334 245.967 109.627C247.317 111.92 249.159 113.884 251.36 115.38C255.96 118.647 262.133 120.28 269.88 120.28C274.785 120.287 279.68 119.832 284.5 118.92C288.519 118.238 292.45 117.111 296.22 115.56L299.85 137.56C297.975 138.442 296.032 139.171 294.04 139.74C291.383 140.517 288.685 141.152 285.96 141.64C282.96 142.19 279.81 142.64 276.42 143.01C273.042 143.369 269.647 143.55 266.25 143.55C257.65 143.55 250.173 142.28 243.82 139.74C237.853 137.453 232.46 133.886 228.02 129.29C223.792 124.783 220.624 119.388 218.75 113.5C216.706 107.166 215.693 100.545 215.75 93.8899ZM279.32 83.5399C279.2 81.2546 278.808 78.9919 278.15 76.7999C277.51 74.6797 276.46 72.7057 275.06 70.9899C273.601 69.2386 271.793 67.8114 269.75 66.7999C267.284 65.6362 264.576 65.0774 261.85 65.1699C259.165 65.0983 256.497 65.6244 254.04 66.7099C251.954 67.6674 250.099 69.0622 248.6 70.7999C247.116 72.5356 245.976 74.5379 245.24 76.6999C244.455 78.912 243.876 81.1916 243.51 83.5099L279.32 83.5399Z" fill="#544E50"/>
<path d="M406.63 137.8C404.21 138.533 401.423 139.23 398.27 139.89C395.12 140.56 391.83 141.13 388.38 141.61C384.93 142.09 381.38 142.49 377.84 142.79C374.3 143.09 370.84 143.25 367.58 143.25C360.41 143.368 353.277 142.199 346.52 139.8C340.646 137.693 335.312 134.312 330.9 129.9C326.568 125.457 323.252 120.128 321.18 114.28C318.855 107.661 317.717 100.684 317.82 93.67C317.726 86.5633 318.707 79.4833 320.73 72.67C322.436 66.8796 325.274 61.4855 329.08 56.8C332.68 52.4617 337.254 49.0354 342.43 46.8C348.149 44.4081 354.302 43.2299 360.5 43.34C363.891 43.3034 367.275 43.6693 370.58 44.43C373.663 45.1983 376.675 46.2322 379.58 47.52V4.35999L406.64 0L406.63 137.8ZM345.43 92.4C345.43 100.747 347.306 107.467 351.06 112.56C354.813 117.653 360.376 120.207 367.75 120.22C370.17 120.22 372.4 120.13 374.46 119.95C376.52 119.77 378.22 119.56 379.55 119.32V70.1C377.492 68.8588 375.256 67.9415 372.92 67.38C370.226 66.6556 367.449 66.2891 364.66 66.29C351.833 66.29 345.423 75.0067 345.43 92.44V92.4Z" fill="#544E50"/>
<path d="M455.65 17.8001C455.65 22.7601 454.047 26.6634 450.84 29.5101C447.7 32.2625 443.666 33.7799 439.49 33.7799C435.314 33.7799 431.281 32.2625 428.14 29.5101C424.927 26.6701 423.323 22.7667 423.33 17.8001C423.337 12.8334 424.94 8.92674 428.14 6.08008C431.283 3.33362 435.316 1.82007 439.49 1.82007C443.664 1.82007 447.697 3.33362 450.84 6.08008C454.053 8.93341 455.657 12.8401 455.65 17.8001ZM453.11 140.93H426.05V45.4001H453.11V140.93Z" fill="#544E50"/>
<path d="M559.34 93.17C559.436 100.213 558.298 107.219 555.98 113.87C553.907 119.771 550.593 125.159 546.26 129.67C541.863 134.156 536.529 137.615 530.64 139.8C523.896 142.259 516.758 143.459 509.58 143.34C506.307 143.34 502.887 143.187 499.32 142.88C495.754 142.573 492.23 142.163 488.75 141.65C485.304 141.17 482.007 140.597 478.86 139.93C475.714 139.263 472.937 138.553 470.53 137.8V4.35999L497.59 0V47.58C500.633 46.246 503.797 45.2111 507.04 44.49C510.5 43.7461 514.031 43.3806 517.57 43.4C523.755 43.2793 529.894 44.49 535.57 46.95C540.664 49.227 545.144 52.6819 548.64 57.03C552.313 61.6864 555.032 67.0215 556.64 72.73C558.522 79.3772 559.432 86.262 559.34 93.17ZM531.73 92.44C531.73 75 525.314 66.2833 512.48 66.29C509.691 66.2897 506.914 66.6562 504.22 67.38C501.884 67.9415 499.648 68.8588 497.59 70.1V119.32C498.92 119.56 500.59 119.77 502.68 119.95C504.77 120.13 506.97 120.22 509.4 120.22C516.78 120.22 522.347 117.68 526.1 112.6C529.854 107.52 531.737 100.8 531.75 92.44H531.73Z" fill="#544E50"/>
<path d="M123.41 120.6C117.593 128.253 110.234 134.6 101.808 139.228C93.3829 143.857 84.0795 146.665 74.5003 147.47C70.5476 147.81 66.573 147.81 62.6203 147.47C50.3957 146.372 38.6884 142.019 28.7147 134.866C18.741 127.713 10.8649 118.019 5.90463 106.792C0.944397 95.5651 -0.918936 83.2148 0.508235 71.0242C1.93541 58.8337 6.60103 47.2477 14.0203 37.4701C20.2159 29.3279 28.1507 22.6712 37.2461 17.9855C46.3414 13.2998 56.3679 10.7032 66.5944 10.385C76.8208 10.0669 86.9893 12.0353 96.3583 16.1467C105.727 20.2581 114.061 26.4087 120.75 34.1501C113.598 38.0497 106.752 42.4857 100.27 47.4201C98.8472 45.9877 97.3305 44.6514 95.7302 43.4201C91.0649 39.8226 85.7341 37.1834 80.0446 35.6546C74.3552 34.1258 68.4195 33.7375 62.5794 34.512C56.7392 35.2866 51.11 37.2087 46.0157 40.1678C40.9215 43.1269 36.4629 47.0644 32.8966 51.7536C29.3304 56.4429 26.727 61.7913 25.2362 67.4909C23.7455 73.1904 23.3969 79.1285 24.2105 84.9634C25.0241 90.7982 26.9839 96.4145 29.977 101.489C32.97 106.563 36.9373 110.995 41.6503 114.53L42.1703 114.93C43.6303 116.04 45.0703 117.18 46.4803 118.33L46.6803 117.85C54.2486 122.135 62.903 124.117 71.5817 123.554C80.2605 122.99 88.586 119.905 95.5367 114.678C102.487 109.451 107.761 102.308 110.71 94.1264C113.66 85.9448 114.157 77.0801 112.14 68.6201C118.67 63.3999 125.658 58.7811 133.02 54.8201C137.095 65.7022 138.348 77.4388 136.662 88.9358C134.977 100.433 130.407 111.316 123.38 120.57L123.41 120.6Z" fill="#544E50"/>
<path d="M42.3801 159.23C52.3268 159.23 60.3901 151.167 60.3901 141.22C60.3901 131.273 52.3268 123.21 42.3801 123.21C32.4335 123.21 24.3701 131.273 24.3701 141.22C24.3701 151.167 32.4335 159.23 42.3801 159.23Z" fill="#F4727F"/>
<path d="M529 148.71C530.43 147.81 533 148.71 532.32 149.83C518.79 174.64 478.61 191.34 435.22 190.18C395.78 189.18 360.94 173.51 347.85 151.18C347.16 150.02 349.69 149.18 351.15 150.02C363.15 157.38 391.69 171.69 434.49 172.65C483.28 173.8 516.25 156.72 529 148.71Z" fill="#F4727F"/>
</g>
<defs>
<clipPath id="clip0_1310_1755">
<rect width="559.34" height="190.24" fill="white"/>
</clipPath>
</defs>
</svg>
